<?xml version="1.0" standalone="no"?>
<!DOCTYPE svg PUBLIC "-//W3C//DTD SVG 20010904//EN"
 "http://www.w3.org/TR/2001/REC-SVG-20010904/DTD/svg10.dtd">
<svg version="1.0" xmlns="http://www.w3.org/2000/svg"
 width="1012.000000pt" height="1012.000000pt" viewBox="0 0 1012.000000 1012.000000"
 preserveAspectRatio="xMidYMid meet">
<metadata>
Created by potrace 1.11, written by Peter Selinger 2001-2013
</metadata>
<g transform="translate(0.000000,1012.000000) scale(0.100000,-0.100000)"
fill="#000000" stroke="none">
<path d="M368 10105 c6 -11 294 -412 352 -490 44 -60 92 -126 420 -580 139
-192 348 -480 463 -640 116 -159 250 -344 297 -410 48 -66 149 -205 225 -309
75 -104 139 -195 142 -203 3 -7 -6 -31 -21 -53 -14 -22 -26 -44 -26 -49 0 -5
-3 -11 -8 -13 -25 -11 -266 -474 -257 -496 2 -7 1 -10 -4 -7 -5 3 -13 -5 -16
-17 -4 -13 -18 -46 -31 -75 -13 -28 -24 -58 -24 -65 0 -8 -4 -18 -9 -23 -5 -6
-30 -73 -56 -149 -92 -276 -162 -591 -191 -861 -11 -105 -13 -127 -19 -260
-11 -198 -11 -225 -1 -225 5 0 3 -6 -3 -13 -6 -8 -9 -16 -6 -18 2 -3 7 -67 10
-144 3 -77 7 -153 9 -170 8 -81 18 -172 21 -185 1 -8 6 -35 10 -60 12 -80 18
-113 41 -235 24 -126 114 -435 172 -590 48 -126 96 -240 105 -243 4 -2 7 -10
7 -17 0 -16 152 -316 180 -355 11 -16 20 -31 20 -34 0 -4 21 -39 47 -79 208
-323 321 -464 583 -728 156 -157 257 -247 390 -347 52 -40 100 -76 105 -80 32
-26 210 -144 223 -149 10 -4 19 -10 22 -13 18 -25 405 -230 432 -230 13 0 58
62 58 79 0 5 4 11 9 13 4 2 35 41 69 88 l60 84 -152 77 c-220 111 -211 106
-396 228 -97 64 -264 183 -280 201 -3 3 -32 27 -65 55 -33 27 -77 66 -99 85
-21 19 -44 33 -50 32 -6 -2 -8 -1 -4 3 4 4 -35 48 -85 99 -258 257 -449 509
-630 826 -32 57 -144 282 -157 317 -7 18 -17 30 -23 26 -6 -3 -7 -1 -3 5 4 6
-7 43 -24 83 -16 39 -30 75 -30 79 0 4 -8 25 -17 46 -9 22 -18 44 -19 49 -1 6
-17 53 -34 105 -18 52 -33 102 -35 110 -2 8 -10 42 -19 75 -18 69 -47 200 -51
232 -2 12 -6 34 -9 50 -7 31 -11 56 -21 126 -4 27 -8 58 -11 70 -2 11 -6 57
-10 101 -3 45 -8 97 -10 116 -2 19 -4 68 -5 108 0 47 -5 72 -12 72 -9 0 -9 2
-1 8 8 4 12 50 12 128 1 115 8 246 17 324 2 19 7 58 10 85 3 28 10 75 15 105
5 30 11 71 15 90 29 185 115 494 192 690 56 145 194 442 213 460 3 3 15 23 27
45 12 22 32 57 43 78 l21 39 54 -74 c29 -40 67 -91 83 -113 35 -48 425 -587
640 -885 86 -118 172 -237 192 -265 37 -49 531 -731 619 -854 77 -107 127
-176 365 -505 126 -174 233 -313 237 -309 3 5 102 141 219 303 117 162 230
318 250 345 21 28 75 102 121 166 46 64 175 242 286 395 111 154 392 542 624
864 869 1206 1790 2481 1802 2495 4 6 170 235 368 510 198 275 415 577 483
670 172 239 172 246 1 35 -60 -74 -261 -321 -1038 -1275 -76 -93 -171 -210
-210 -259 -40 -49 -76 -94 -82 -100 -5 -6 -37 -45 -70 -86 -34 -41 -171 -210
-305 -375 -134 -165 -301 -370 -370 -455 -272 -335 -404 -497 -440 -540 -21
-25 -107 -130 -192 -235 -84 -104 -203 -251 -264 -325 -60 -74 -147 -181 -193
-238 -67 -83 -86 -101 -96 -90 -6 7 -108 146 -225 308 -118 162 -277 383 -355
490 -78 107 -268 371 -423 585 -155 215 -315 435 -355 490 -219 300 -419 578
-423 590 -6 14 -13 10 216 127 235 120 540 237 742 284 44 10 74 22 71 27 -3
6 -1 7 5 3 7 -4 56 2 111 13 54 11 115 23 136 27 21 3 46 7 57 9 11 3 46 7 77
10 31 4 63 8 71 10 93 25 691 26 855 1 17 -3 71 -10 120 -17 50 -6 99 -13 110
-16 39 -8 120 -24 140 -29 11 -2 29 -6 40 -8 11 -2 40 -9 64 -15 25 -5 49 -8
53 -5 4 3 8 0 8 -5 0 -6 6 -11 13 -11 6 0 71 -18 142 -40 159 -49 146 -45 170
-55 11 -4 54 -21 95 -37 107 -41 176 -73 333 -151 l138 -69 24 26 c13 14 36
43 52 63 15 21 30 40 33 43 3 3 26 30 52 61 35 42 44 59 35 68 -6 6 -16 11
-23 11 -7 0 -14 4 -16 9 -3 10 -320 171 -335 171 -5 0 -38 14 -74 31 -51 25
-251 102 -294 113 -5 2 -17 6 -25 9 -56 21 -312 92 -369 102 -19 3 -37 7 -40
9 -3 2 -24 7 -46 11 -22 3 -49 8 -60 10 -33 6 -148 26 -175 30 -14 2 -50 7
-80 10 -30 4 -73 8 -95 11 -22 2 -75 6 -117 8 -42 2 -81 6 -85 8 -22 12 -567
-3 -641 -17 -9 -2 -32 -4 -50 -4 -21 -1 -31 -5 -26 -12 5 -8 1 -8 -13 0 -11 6
-23 8 -25 5 -3 -2 -23 -6 -44 -9 -21 -2 -77 -11 -124 -20 -47 -9 -98 -18 -115
-21 -37 -7 -241 -57 -315 -77 -147 -41 -375 -125 -530 -195 -96 -43 -224 -105
-230 -112 -3 -3 -30 -17 -60 -32 -30 -15 -78 -41 -107 -58 l-52 -31 -60 83
c-33 46 -122 169 -198 273 -76 105 -145 200 -153 212 -8 12 -78 109 -156 215
-77 106 -202 279 -278 383 -75 105 -145 199 -154 210 -17 21 -21 21 -1119 20
-733 0 -1099 -3 -1095 -10z"/>
<path d="M7908 8548 c-111 -152 -128 -176 -128 -185 0 -5 35 -34 78 -63 440
-305 826 -725 1104 -1200 54 -92 176 -333 210 -415 134 -327 232 -680 264
-953 3 -26 7 -58 9 -72 4 -30 15 -137 20 -205 5 -69 6 -451 0 -500 -2 -22 -6
-69 -9 -105 -8 -84 -26 -231 -31 -250 -2 -8 -7 -33 -10 -55 -4 -22 -8 -44 -9
-50 -3 -11 -17 -80 -21 -105 -23 -130 -136 -483 -210 -654 -141 -328 -350
-675 -558 -923 -120 -143 -350 -382 -407 -423 l-26 -18 -24 36 c-14 20 -45 64
-70 98 -25 33 -58 78 -73 100 -44 62 -150 209 -170 235 -9 13 -56 78 -103 144
-96 135 -91 128 -179 250 -36 50 -72 98 -80 108 -8 9 -15 22 -15 27 0 6 -4 10
-8 10 -4 0 -16 13 -25 30 -10 16 -23 35 -30 43 -7 7 -16 20 -22 29 -5 8 -30
44 -55 78 -25 34 -54 75 -65 91 -92 130 -272 377 -282 387 -7 7 -13 17 -13 20
0 4 -10 18 -23 32 -13 14 -23 27 -23 30 1 3 -11 21 -25 40 -14 19 -42 58 -62
85 -20 28 -106 147 -191 265 -85 118 -158 220 -163 225 -4 6 -19 27 -33 47
-14 21 -28 38 -31 38 -5 0 -86 -108 -185 -245 -7 -11 -47 -65 -87 -120 -41
-55 -146 -201 -235 -325 -89 -124 -169 -234 -177 -245 -33 -44 -113 -154 -159
-220 -28 -38 -52 -72 -56 -75 -11 -10 -177 -246 -243 -347 -37 -56 -73 -108
-80 -115 -6 -8 -16 -21 -22 -30 -5 -10 -28 -43 -51 -75 -235 -334 -514 -735
-514 -739 0 -3 -11 -17 -25 -32 -14 -15 -25 -32 -25 -39 0 -7 -4 -13 -8 -13
-4 0 -16 -15 -27 -32 -10 -18 -21 -35 -25 -38 -3 -3 -80 -111 -170 -240 -90
-129 -180 -258 -202 -286 -21 -28 -38 -56 -38 -62 0 -5 -4 -12 -8 -14 -5 -1
-35 -41 -67 -88 -32 -47 -69 -99 -82 -117 -14 -18 -21 -37 -17 -44 4 -7 3 -9
-3 -6 -9 6 -55 -51 -98 -122 -5 -9 -13 -18 -16 -21 -5 -5 -70 -98 -161 -230
-21 -30 -41 -59 -45 -65 -9 -11 -243 -346 -301 -430 -30 -45 -31 -47 -6 -20
29 30 42 47 143 175 28 36 59 74 69 85 10 11 45 54 78 95 32 41 65 81 72 88 7
8 25 30 40 50 15 21 32 42 37 48 6 6 21 26 35 44 14 18 30 38 35 44 6 6 59 71
119 145 59 74 113 140 120 146 6 6 20 24 31 39 31 43 107 138 138 171 15 16
25 36 22 43 -3 7 -1 11 4 7 8 -4 21 9 69 70 5 6 52 64 106 130 114 139 134
164 161 201 11 15 32 40 47 57 16 16 25 34 21 40 -3 5 -2 7 4 4 5 -3 16 3 24
14 8 12 21 30 31 40 9 11 31 39 50 61 18 23 48 60 66 82 40 50 43 53 117 146
33 41 62 77 65 80 3 3 24 28 45 55 22 28 42 52 45 55 3 3 23 28 45 55 21 28
42 52 45 55 3 3 30 37 60 75 30 39 59 75 65 81 5 6 21 26 35 44 14 18 33 42
44 54 10 11 30 37 45 56 49 65 50 65 105 -14 28 -39 55 -76 61 -82 5 -6 16
-20 22 -30 12 -17 235 -330 364 -509 218 -303 289 -401 296 -410 4 -5 17 -23
27 -40 11 -16 23 -34 28 -40 5 -5 55 -75 112 -155 57 -80 115 -159 129 -176
15 -17 21 -31 14 -31 -7 -1 -68 -12 -137 -26 -69 -14 -145 -29 -170 -32 -25
-3 -56 -8 -70 -10 -128 -20 -272 -28 -500 -28 -199 -1 -342 6 -420 18 -14 2
-50 7 -80 10 -197 22 -595 119 -786 192 -14 5 -227 -259 -216 -268 17 -14 306
-112 427 -144 181 -48 435 -98 567 -110 34 -4 74 -9 88 -11 102 -17 558 -24
710 -11 41 4 104 9 140 12 131 11 463 69 545 95 17 5 41 11 55 14 14 2 32 7
41 11 11 4 21 -2 32 -18 9 -13 22 -30 29 -38 8 -8 17 -21 21 -29 4 -8 27 -42
52 -75 25 -33 53 -71 62 -85 68 -99 249 -346 255 -348 4 -2 8 -8 8 -14 0 -11
60 -91 72 -96 5 -2 8 -8 8 -13 0 -17 57 -88 65 -81 5 4 5 2 2 -4 -3 -6 1 -20
11 -31 9 -10 22 -26 27 -35 42 -66 90 -130 104 -138 9 -5 12 -10 8 -10 -7 0
36 -66 76 -115 4 -5 13 -18 20 -28 12 -17 63 -18 1111 -18 604 0 1100 2 1102
4 4 3 -83 128 -119 172 -4 6 -46 64 -93 130 -130 181 -286 399 -360 500 -36
50 -72 99 -80 110 -345 481 -443 618 -462 640 -4 6 -23 33 -42 60 -19 28 -38
55 -43 60 -7 8 -137 190 -195 274 -9 13 -26 35 -38 49 l-21 25 202 201 c112
112 249 261 309 336 309 387 550 830 701 1285 61 185 133 479 151 615 2 19 7
42 9 50 2 8 7 40 11 70 3 30 7 66 9 80 5 39 16 158 20 230 6 81 6 431 1 485
-3 22 -7 76 -11 120 -3 44 -8 96 -10 115 -3 19 -7 55 -10 80 -16 130 -62 364
-96 485 -11 39 -22 79 -24 90 -9 44 -99 305 -137 400 -54 133 -165 366 -229
479 -87 154 -271 424 -385 566 -168 208 -446 484 -659 651 -93 73 -256 189
-266 189 -5 0 -32 -33 -61 -72z"/>
<path d="M3239 333 c-13 -16 -12 -17 4 -4 16 13 21 21 13 21 -2 0 -10 -8 -17
-17z"/>
</g>
</svg>
